<?xml version="1.0" standalone="no"?><!DOCTYPE svg PUBLIC "-//W3C//DTD SVG 1.1//EN" "http://www.w3.org/Graphics/SVG/1.1/DTD/svg11.dtd"><svg t="1636192177468" class="icon" viewBox="0 0 1024 1024" version="1.1" xmlns="http://www.w3.org/2000/svg" p-id="8124" data-darkreader-inline-fill="" width="200" height="200" xmlns:xlink="http://www.w3.org/1999/xlink"><defs><style type="text/css"></style></defs><path d="M511.3 510.4m-485.6 0a485.6 485.6 0 1 0 971.2 0 485.6 485.6 0 1 0-971.2 0Z" fill="#75DAF2" p-id="8125" data-darkreader-inline-fill="" style="--darkreader-inline-fill:#0c6b81;"></path><path d="M312 202.6h398.6v549.3H312z" fill="#1296db" p-id="8126" data-darkreader-inline-fill="" style="--darkreader-inline-fill:#60803b;" data-spm-anchor-id="a313x.7781069.0.i2" class="selected"></path><path d="M710.6 758.7H312c-3.7 0-6.8-3-6.8-6.8V202.6c0-3.7 3-6.8 6.8-6.8h398.6c3.7 0 6.8 3 6.8 6.8v549.3c0 3.8-3 6.8-6.8 6.8z m-391.8-13.6h385V209.4h-385v535.7z" fill="#151515" p-id="8127" data-darkreader-inline-fill="" style="--darkreader-inline-fill:#101112;"></path><path d="M598.5 876.5L312 751.9V202.6l286.5 124.6z" fill="#F7F9F9" p-id="8128" data-darkreader-inline-fill="" style="--darkreader-inline-fill:#192222;"></path><path d="M598.5 883.3c-0.9 0-1.8-0.2-2.7-0.6L309.3 758.2c-2.5-1.1-4.1-3.5-4.1-6.2V202.6c0-2.3 1.2-4.4 3.1-5.7 1.9-1.3 4.3-1.5 6.4-0.5L601.2 321c2.5 1.1 4.1 3.5 4.1 6.2v549.3c0 2.3-1.2 4.4-3.1 5.7-1.1 0.7-2.4 1.1-3.7 1.1zM318.8 747.5l272.9 118.7V331.7L318.8 213v534.5z" fill="#0C0C0C" p-id="8129" data-darkreader-inline-fill="" style="--darkreader-inline-fill:#090a0a;"></path><path d="M548.7 603.8c-3.7 0-6.8-3-6.8-6.8v-58.2c0-3.7 3-6.8 6.8-6.8s6.8 3 6.8 6.8V597c0 3.7-3 6.8-6.8 6.8z" fill="#151515" p-id="8130" data-darkreader-inline-fill="" style="--darkreader-inline-fill:#dbd8d3;"></path></svg>